<?xml version="1.0" encoding="utf-8"?>
<!-- Generator: Adobe Illustrator 25.3.0, SVG Export Plug-In . SVG Version: 6.00 Build 0)  -->
<svg version="1.1" id="Capa_1" xmlns="http://www.w3.org/2000/svg" xmlns:xlink="http://www.w3.org/1999/xlink" x="0px" y="0px"
	 viewBox="0 0 1920 1080" style="enable-background:new 0 0 1920 1080;" xml:space="preserve">
<style type="text/css">
	.st0{fill:#FAF8FB;}
</style>
<g>
	<g>
		<path class="st0" d="M1097.82,422.46c-16.55,121.02-64.99,175.42-152.68,176.09c-76.15,0.58-125.05-65.17-134.65-176.35
			c-5.86,30.32-13.87,60.01-17.07,91.09c-4.9,47.52-19.16,69.17-48.24,69.45c-51.45,0.51-59.46-5.78-68.51-63.91
			c-6.67-42.82-13.68-85.48-22.37-139.64c-11.04,60-21.92,106.05-27.51,153.84c-4.26,36.44-16.64,47.32-35.02,48.66
			c-19.95,1.46-39.97,0.33-63.16,0.33c-8.31-44.37-16.47-90.09-25.49-135.33c-7.43-37.31-17.76-73.28-23.29-111.28
			c-4.78-32.85-15.61-74.73,15.09-90.85c34.13-17.92,55.17,0.48,64.74,50.98c6.86,36.19,14.15,72.14,22.42,114.15
			c4.24-9.51,10.23-17.66,11.9-27.81c3.73-22.54,5.06-46.16,7.8-69.2c4.5-37.93,11.9-72.03,40.6-70.79
			c26.97,1.16,58.05-13.62,62.86,59.58c2.2,33.46,13.06,65.32,21.48,104.87c4.25-8.69,10.43-15.95,11.87-25.27
			c3.98-25.92,5.4-52.92,8.91-79.09c7.29-54.39,39.13-80.89,68.74-54.96c13.58,11.89,29.97,28.08,12.07,61.28
			c-3,5.57-2.04,17.14-3.68,33.62c58.64-137.1,203.84-122.6,257.57-7.17c-3.31-14.86-6.63-29.73-9.88-44.32
			c14.73-47.23,40.47-44.29,64.91-34.86c9.25,3.57,19.72,22.62,23.25,38.57c8.77,39.69,13.88,81.67,22.11,133.06
			c10.23-51.2,20.33-91.56,26.18-133.58c8.07-58.01,34.62-38.92,55.71-41.65c21.57-2.79,36.11,15.79,41.44,50.37
			c5.85,37.99,9.86,76.78,14.68,115.22c2.83,0.58,5.66,1.17,8.5,1.75c3.64-20.3,7.13-40.68,10.95-60.88
			c5.29-27.98,8.14-58.5,16.89-83.1c13.54-38.07,36.54-25.71,56.79-17.83c19.49,7.59,20.88,30.96,15.7,58.68
			c-14.91,79.78-28.73,160.19-45.14,239.08c-3.18,15.28-15.68,26.02-24.85,36.47c-3.54,4.04-9.77,1.65-14.78,1.87
			c-55.24,2.48-64.25-9.57-75.96-100.62c-4.16-32.35-8.65-64.58-19.9-97.79c-4.47,32.58-9.33,65.03-13.33,97.78
			c-11.26,92.35-20.17,103.86-75.52,100.91c-26.03-1.39-39.74-22.51-45.02-64.57C1110.41,493.28,1103.61,458.05,1097.82,422.46z
			 M999.33,422.69c0.03-71.59-11.14-93.61-47.66-93.95c-36.53-0.34-53.24,28.88-53.3,93.18c-0.05,65.35,16.15,94.11,52.79,93.71
			C988.36,515.23,999.3,494.11,999.33,422.69z"/>
		<path class="st0" d="M986.36,774.45c-10.05,0.85-20.11,1.7-30.16,2.55c-95.19-1.65-186.87-27.8-270.4-109.69
			c-13.3-13.04-25.91-28.07-35.85-52.73c20,10.91,40.09,21.36,59.98,32.82c168.13,96.86,335.03,76.87,501.03-15.26
			c7.92-4.4,13.97-17.57,21.7-23.85c7.21-5.85,15.46-9.77,23.37-10.43c2.02-0.17,7.36,20.98,6.3,22.43
			c-5.48,7.55-12.43,12.27-19.05,17.29c-29.63,22.43-58.34,50.21-89.23,65.69C1098.86,730.94,1042.33,751.14,986.36,774.45z"/>
	</g>
</g>
</svg>
